<svg width="87" height="28" viewBox="0 0 87 28" fill="none" xmlns="http://www.w3.org/2000/svg">
<path d="M72.78 11.584C72.78 11.1767 72.9793 10.973 73.378 10.973C73.742 10.973 73.924 11.1723 73.924 11.571C73.924 11.961 73.7333 12.156 73.352 12.156C72.9707 12.156 72.78 11.9653 72.78 11.584ZM77.8371 12.156C76.2164 12.156 75.4061 11.1593 75.4061 9.166C75.4061 8.178 75.6444 7.359 76.1211 6.709C76.6064 6.059 77.2954 5.734 78.1881 5.734C78.6994 5.734 79.1544 5.82067 79.5531 5.994L79.4101 6.67C79.0548 6.54867 78.6821 6.488 78.2921 6.488C77.0181 6.488 76.3811 7.38933 76.3811 9.192C76.3811 10.6567 76.9184 11.389 77.9931 11.389C78.5391 11.389 79.0504 11.2373 79.5271 10.934L79.6701 11.441C79.4534 11.6577 79.1718 11.831 78.8251 11.961C78.4871 12.091 78.1578 12.156 77.8371 12.156ZM84.8065 7.567V6.618C84.5552 6.488 84.1782 6.423 83.6755 6.423C82.3929 6.423 81.7515 7.38933 81.7515 9.322C81.7515 10.7347 82.1805 11.441 83.0385 11.441C83.4025 11.441 83.7059 11.3197 83.9485 11.077C84.1999 10.8257 84.3862 10.4877 84.5075 10.063C84.7069 9.32633 84.8065 8.49433 84.8065 7.567ZM82.9475 12.156C82.1935 12.156 81.6432 11.896 81.2965 11.376C80.9499 10.856 80.7765 10.1193 80.7765 9.166C80.7765 8.204 81.0192 7.39367 81.5045 6.735C81.9985 6.06767 82.7222 5.734 83.6755 5.734C84.0135 5.734 84.3472 5.76867 84.6765 5.838C85.0145 5.90733 85.3482 6.007 85.6775 6.137V9.439C85.6775 10.323 85.7555 10.882 85.9115 11.116C86.0589 11.35 86.3059 11.467 86.6525 11.467L86.6785 12.052C86.5399 12.0867 86.3665 12.104 86.1585 12.104C85.6992 12.104 85.3699 11.9437 85.1705 11.623C85.0232 11.389 84.9495 11.1117 84.9495 10.791C84.9495 10.687 84.9582 10.5743 84.9755 10.453H84.8975C84.7502 10.973 84.5119 11.389 84.1825 11.701C83.8619 12.0043 83.4502 12.156 82.9475 12.156Z" fill="white"/>
<path d="M0.811095 16.6569C0.483218 16.4385 0.246645 16.4569 0.10133 16.7118C0.0431023 16.8075 0.0145283 16.9028 0.0155189 16.9978C0.0171696 17.1562 0.107603 17.3137 0.286819 17.4702C3.57486 20.5722 7.28468 22.965 11.4163 24.6485C15.5478 26.332 19.922 27.1497 24.5387 27.1015C27.5277 27.0704 30.5861 26.595 33.7138 25.6753C36.8415 24.7557 39.6696 23.4749 42.1978 21.8328C43.0208 21.2857 43.6966 20.8035 44.225 20.3861C44.636 20.065 44.7137 19.7157 44.4582 19.3382C44.2027 18.9607 43.854 18.8693 43.4121 19.064C43.2943 19.1286 43.0956 19.2257 42.8158 19.3554C42.5359 19.485 42.3224 19.5823 42.1751 19.6472C36.5466 22.0185 30.8322 23.2344 25.0318 23.2948C16.3311 23.3855 8.25749 21.1729 0.811095 16.6569Z" fill="#FF9900"/>
<path d="M40.0136 16.7235C39.8965 16.8514 39.809 16.979 39.7512 17.1064C39.7222 17.17 39.708 17.2177 39.7083 17.2494C39.6793 17.313 39.6948 17.3762 39.7547 17.439C39.8145 17.5017 39.9332 17.5321 40.1108 17.5303C40.7313 17.4288 41.4109 17.3267 42.1498 17.2239C42.8298 17.1535 43.4213 17.1156 43.9245 17.1104C45.2858 17.0962 46.1164 17.2776 46.4163 17.6546C46.5363 17.8118 46.5982 18.0646 46.6018 18.413C46.613 19.49 46.0855 21.4122 45.0193 24.1794C44.9331 24.4337 44.9793 24.6075 45.1579 24.7007C45.2174 24.7318 45.2767 24.747 45.3359 24.7464C45.4543 24.7451 45.5868 24.6804 45.7335 24.5521C46.7301 23.6231 47.5017 22.4033 48.0483 20.8927C48.5949 19.3822 48.8625 18.0726 48.8509 16.964L48.8474 16.6314C48.8435 16.2513 48.7813 15.9668 48.661 15.778C48.391 15.4323 47.5895 15.2031 46.2564 15.0902C45.9894 15.0297 45.7081 15.0167 45.4125 15.0515C44.3474 15.0943 43.2542 15.2799 42.133 15.6084C41.4542 15.8056 40.7478 16.1773 40.0136 16.7235Z" fill="#FF9900"/>
</svg>
